<?xml version="1.0" encoding="UTF-8"?>
<svg version="1.1" xmlns="http://www.w3.org/2000/svg" width="640" height="65">
<path d="M0 0 C1.93420379 0.00119655 3.86840816 0.00164396 5.8026123 0.00138855 C9.82987174 0.0029405 13.85704067 0.01112918 17.88427734 0.0246582 C23.00076471 0.04164569 28.11715319 0.04547159 33.23366547 0.04471302 C37.21979688 0.04498725 41.20590745 0.05050863 45.19203186 0.05771446 C47.07674503 0.06085659 48.96146051 0.06285787 50.84617615 0.06360817 C60.98280569 0.07206643 71.04446307 0.26672969 81.15576172 1.01152039 C86.11884291 1.3334467 91.06080603 1.30334916 96.03125 1.23046875 C102.31501491 1.14146358 108.30932131 1.30008689 114.53125 2.23046875 C114.53125 2.89046875 114.53125 3.55046875 114.53125 4.23046875 C119.48125 4.23046875 124.43125 4.23046875 129.53125 4.23046875 C129.53125 4.89046875 129.53125 5.55046875 129.53125 6.23046875 C130.62179688 6.19566406 130.62179688 6.19566406 131.734375 6.16015625 C139.2203801 6.02579206 146.19285471 6.77319876 153.53125 8.23046875 C153.53125 8.89046875 153.53125 9.55046875 153.53125 10.23046875 C155.09340548 10.4003342 156.6559952 10.56620839 158.21875 10.73046875 C159.08886719 10.82328125 159.95898438 10.91609375 160.85546875 11.01171875 C163.42848339 11.22206739 165.95109364 11.26766019 168.53125 11.23046875 C168.53125 11.89046875 168.53125 12.55046875 168.53125 13.23046875 C169.830625 13.18921875 171.13 13.14796875 172.46875 13.10546875 C177.36716302 13.08991823 181.81301811 13.98119695 186.53125 15.23046875 C186.53125 15.89046875 186.53125 16.55046875 186.53125 17.23046875 C187.68625 17.18921875 188.84125 17.14796875 190.03125 17.10546875 C194.47606301 17.08959442 198.26849131 18.0125377 202.53125 19.23046875 C202.53125 19.89046875 202.53125 20.55046875 202.53125 21.23046875 C204.09359375 21.13378906 204.09359375 21.13378906 205.6875 21.03515625 C211.99501988 21.04344108 217.94993352 22.83237108 224.03125 24.35546875 C235.14480448 27.0627103 246.28525122 29.45349885 257.53125 31.54296875 C258.82224609 31.7848291 260.11324219 32.02668945 261.44335938 32.27587891 C269.78230142 33.80626674 278.13009964 35.09375686 286.53125 36.23046875 C286.53125 36.89046875 286.53125 37.55046875 286.53125 38.23046875 C287.89830078 38.19566406 287.89830078 38.19566406 289.29296875 38.16015625 C300.80907893 37.99973282 312.08970191 38.97550315 323.53125 40.23046875 C323.53125 40.89046875 323.53125 41.55046875 323.53125 42.23046875 C324.69699051 42.21794067 325.86273102 42.2054126 327.063797 42.19250488 C338.08275876 42.0741623 349.101727 41.95644065 360.12070179 41.83931732 C365.78481693 41.77909238 371.4489296 41.71865336 377.11303711 41.65771484 C382.58545591 41.59884669 388.05788058 41.54055429 393.53030968 41.48265076 C395.61174422 41.46052799 397.69317662 41.43820239 399.7746067 41.41566467 C402.70365484 41.38398458 405.63270899 41.3529626 408.56176758 41.32226562 C409.46308662 41.31259766 410.36440567 41.30292969 411.29303741 41.29296875 C415.86340113 41.24669054 420.43131022 41.22987061 425.00195312 41.2578125 C428.66608937 41.26565213 432.21732459 41.05662461 435.85546875 40.57421875 C437.42651367 40.37119141 437.42651367 40.37119141 439.02929688 40.1640625 C440.08181641 40.02097656 441.13433594 39.87789062 442.21875 39.73046875 C443.86133789 39.51583984 443.86133789 39.51583984 445.53710938 39.296875 C448.20271741 38.94766871 450.86730646 38.59211616 453.53125 38.23046875 C453.53125 37.57046875 453.53125 36.91046875 453.53125 36.23046875 C454.32708496 36.08947754 455.12291992 35.94848633 455.94287109 35.80322266 C459.59753149 35.1550977 463.25189168 34.5052947 466.90625 33.85546875 C468.15792969 33.63375 469.40960937 33.41203125 470.69921875 33.18359375 C476.95516884 32.06996913 483.19491989 30.93044375 489.40625 29.58789062 C492.81081915 29.0152471 496.08725992 29.10291356 499.53125 29.23046875 C499.53125 28.57046875 499.53125 27.91046875 499.53125 27.23046875 C503.31926501 26.03109372 507.11216877 24.84799994 510.90625 23.66796875 C511.98648438 23.32572266 513.06671875 22.98347656 514.1796875 22.63085938 C515.2109375 22.31181641 516.2421875 21.99277344 517.3046875 21.6640625 C518.73433838 21.2163147 518.73433838 21.2163147 520.19287109 20.75952148 C522.53125 20.23046875 522.53125 20.23046875 524.53125 21.23046875 C524.53125 35.75046875 524.53125 50.27046875 524.53125 65.23046875 C313.33125 65.23046875 102.13125 65.23046875 -115.46875 65.23046875 C-115.46875 50.38046875 -115.46875 35.53046875 -115.46875 20.23046875 C-104.19910439 15.72261051 -104.19910439 15.72261051 -98.71875 14.34375 C-97.5328125 14.04533203 -96.346875 13.74691406 -95.125 13.43945312 C-93.9184375 13.14361328 -92.711875 12.84777344 -91.46875 12.54296875 C-89.65890625 12.08180664 -89.65890625 12.08180664 -87.8125 11.61132812 C-79.3178733 9.50152138 -71.22417468 8.15834036 -62.46875 8.23046875 C-62.46875 7.57046875 -62.46875 6.91046875 -62.46875 6.23046875 C-58.46937235 5.60144575 -54.4691358 4.97804535 -50.46875 4.35546875 C-49.36273438 4.18144531 -48.25671875 4.00742188 -47.1171875 3.828125 C-43.57016073 3.27772429 -40.0200052 2.75288636 -36.46875 2.23046875 C-34.74199036 1.96617821 -34.74199036 1.96617821 -32.98034668 1.69654846 C-21.95595849 0.14532528 -11.11989277 -0.04616501 0 0 Z M-19.46875 1.23046875 C-19.46875 1.56046875 -19.46875 1.89046875 -19.46875 2.23046875 C-15.83875 2.23046875 -12.20875 2.23046875 -8.46875 2.23046875 C-8.46875 1.90046875 -8.46875 1.57046875 -8.46875 1.23046875 C-12.09875 1.23046875 -15.72875 1.23046875 -19.46875 1.23046875 Z M-28.46875 2.23046875 C-28.46875 2.56046875 -28.46875 2.89046875 -28.46875 3.23046875 C-25.82875 3.23046875 -23.18875 3.23046875 -20.46875 3.23046875 C-20.46875 2.90046875 -20.46875 2.57046875 -20.46875 2.23046875 C-23.10875 2.23046875 -25.74875 2.23046875 -28.46875 2.23046875 Z M98.53125 2.23046875 C98.53125 2.56046875 98.53125 2.89046875 98.53125 3.23046875 C100.84125 3.23046875 103.15125 3.23046875 105.53125 3.23046875 C105.53125 2.90046875 105.53125 2.57046875 105.53125 2.23046875 C103.22125 2.23046875 100.91125 2.23046875 98.53125 2.23046875 Z M-36.46875 3.23046875 C-36.46875 3.56046875 -36.46875 3.89046875 -36.46875 4.23046875 C-34.15875 4.23046875 -31.84875 4.23046875 -29.46875 4.23046875 C-29.46875 3.90046875 -29.46875 3.57046875 -29.46875 3.23046875 C-31.77875 3.23046875 -34.08875 3.23046875 -36.46875 3.23046875 Z M-44.46875 4.23046875 C-44.46875 4.56046875 -44.46875 4.89046875 -44.46875 5.23046875 C-42.15875 5.23046875 -39.84875 5.23046875 -37.46875 5.23046875 C-37.46875 4.90046875 -37.46875 4.57046875 -37.46875 4.23046875 C-39.77875 4.23046875 -42.08875 4.23046875 -44.46875 4.23046875 Z M-50.46875 5.23046875 C-46.46875 6.23046875 -46.46875 6.23046875 -46.46875 6.23046875 Z M-56.46875 6.23046875 C-56.46875 6.56046875 -56.46875 6.89046875 -56.46875 7.23046875 C-54.81875 7.23046875 -53.16875 7.23046875 -51.46875 7.23046875 C-51.46875 6.90046875 -51.46875 6.57046875 -51.46875 6.23046875 C-53.11875 6.23046875 -54.76875 6.23046875 -56.46875 6.23046875 Z M136.53125 7.23046875 C136.53125 7.56046875 136.53125 7.89046875 136.53125 8.23046875 C138.18125 8.23046875 139.83125 8.23046875 141.53125 8.23046875 C141.53125 7.90046875 141.53125 7.57046875 141.53125 7.23046875 C139.88125 7.23046875 138.23125 7.23046875 136.53125 7.23046875 Z M142.53125 8.23046875 C142.53125 8.56046875 142.53125 8.89046875 142.53125 9.23046875 C144.18125 9.23046875 145.83125 9.23046875 147.53125 9.23046875 C147.53125 8.90046875 147.53125 8.57046875 147.53125 8.23046875 C145.88125 8.23046875 144.23125 8.23046875 142.53125 8.23046875 Z M-72.46875 9.23046875 C-68.46875 10.23046875 -68.46875 10.23046875 -68.46875 10.23046875 Z M-77.46875 10.23046875 C-73.46875 11.23046875 -73.46875 11.23046875 -73.46875 11.23046875 Z M-81.46875 11.23046875 C-77.46875 12.23046875 -77.46875 12.23046875 -77.46875 12.23046875 Z M178.53125 15.23046875 C182.53125 16.23046875 182.53125 16.23046875 182.53125 16.23046875 Z M226.53125 27.23046875 C230.53125 28.23046875 230.53125 28.23046875 230.53125 28.23046875 Z M235.53125 29.23046875 C239.53125 30.23046875 239.53125 30.23046875 239.53125 30.23046875 Z M486.53125 31.23046875 C490.53125 32.23046875 490.53125 32.23046875 490.53125 32.23046875 Z M261.53125 34.23046875 C261.53125 34.56046875 261.53125 34.89046875 261.53125 35.23046875 C263.18125 35.23046875 264.83125 35.23046875 266.53125 35.23046875 C266.53125 34.90046875 266.53125 34.57046875 266.53125 34.23046875 C264.88125 34.23046875 263.23125 34.23046875 261.53125 34.23046875 Z M267.53125 35.23046875 C267.53125 35.56046875 267.53125 35.89046875 267.53125 36.23046875 C269.18125 36.23046875 270.83125 36.23046875 272.53125 36.23046875 C272.53125 35.90046875 272.53125 35.57046875 272.53125 35.23046875 C270.88125 35.23046875 269.23125 35.23046875 267.53125 35.23046875 Z M273.53125 36.23046875 C273.53125 36.56046875 273.53125 36.89046875 273.53125 37.23046875 C275.51125 37.23046875 277.49125 37.23046875 279.53125 37.23046875 C279.53125 36.90046875 279.53125 36.57046875 279.53125 36.23046875 C277.55125 36.23046875 275.57125 36.23046875 273.53125 36.23046875 Z M460.53125 36.23046875 C460.53125 36.56046875 460.53125 36.89046875 460.53125 37.23046875 C462.18125 37.23046875 463.83125 37.23046875 465.53125 37.23046875 C465.53125 36.90046875 465.53125 36.57046875 465.53125 36.23046875 C463.88125 36.23046875 462.23125 36.23046875 460.53125 36.23046875 Z M294.53125 39.23046875 C294.53125 39.56046875 294.53125 39.89046875 294.53125 40.23046875 C297.17125 40.23046875 299.81125 40.23046875 302.53125 40.23046875 C302.53125 39.90046875 302.53125 39.57046875 302.53125 39.23046875 C299.89125 39.23046875 297.25125 39.23046875 294.53125 39.23046875 Z M302.53125 40.23046875 C302.53125 40.56046875 302.53125 40.89046875 302.53125 41.23046875 C305.50125 41.23046875 308.47125 41.23046875 311.53125 41.23046875 C311.53125 40.90046875 311.53125 40.57046875 311.53125 40.23046875 C308.56125 40.23046875 305.59125 40.23046875 302.53125 40.23046875 Z M403.53125 42.23046875 C403.53125 42.56046875 403.53125 42.89046875 403.53125 43.23046875 C408.15125 43.23046875 412.77125 43.23046875 417.53125 43.23046875 C417.53125 42.90046875 417.53125 42.57046875 417.53125 42.23046875 C412.91125 42.23046875 408.29125 42.23046875 403.53125 42.23046875 Z M339.53125 43.23046875 C339.53125 43.56046875 339.53125 43.89046875 339.53125 44.23046875 C360.32125 44.23046875 381.11125 44.23046875 402.53125 44.23046875 C402.53125 43.90046875 402.53125 43.57046875 402.53125 43.23046875 C381.74125 43.23046875 360.95125 43.23046875 339.53125 43.23046875 Z " fill="#3586FE" transform="translate(115.46875,-0.23046875)"/>
<path d="M0 0 C5.28 0 10.56 0 16 0 C16 0.33 16 0.66 16 1 C10.72 1 5.44 1 0 1 C0 0.67 0 0.34 0 0 Z " fill="#4FA1FF" transform="translate(439,41)"/>
<path d="M0 0 C3.96 0 7.92 0 12 0 C12 0.33 12 0.66 12 1 C8.04 1 4.08 1 0 1 C0 0.67 0 0.34 0 0 Z " fill="#519FFF" transform="translate(200,0)"/>
<path d="M0 0 C3.63 0 7.26 0 11 0 C11 0.33 11 0.66 11 1 C7.37 1 3.74 1 0 1 C0 0.67 0 0.34 0 0 Z " fill="#5192FF" transform="translate(534,40)"/>
<path d="M0 0 C2.97 0 5.94 0 9 0 C9 0.33 9 0.66 9 1 C6.03 1 3.06 1 0 1 C0 0.67 0 0.34 0 0 Z " fill="#5097FF" transform="translate(545,39)"/>
<path d="M0 0 C2.64 0 5.28 0 8 0 C8 0.33 8 0.66 8 1 C5.36 1 2.72 1 0 1 C0 0.67 0 0.34 0 0 Z " fill="#4F94FF" transform="translate(554,38)"/>
<path d="M0 0 C2.31 0 4.62 0 7 0 C7 0.33 7 0.66 7 1 C4.69 1 2.38 1 0 1 C0 0.67 0 0.34 0 0 Z " fill="#48A3FF" transform="translate(562,37)"/>
<path d="M0 0 C2.31 0 4.62 0 7 0 C7 0.33 7 0.66 7 1 C4.69 1 2.38 1 0 1 C0 0.67 0 0.34 0 0 Z " fill="#5591FF" transform="translate(402,37)"/>
<path d="M0 0 C2.31 0 4.62 0 7 0 C7 0.33 7 0.66 7 1 C4.69 1 2.38 1 0 1 C0 0.67 0 0.34 0 0 Z " fill="#5B97FF" transform="translate(230,3)"/>
<path d="M0 0 C1.98 0 3.96 0 6 0 C6 0.33 6 0.66 6 1 C4.02 1 2.04 1 0 1 C0 0.67 0 0.34 0 0 Z " fill="#559BFF" transform="translate(245,5)"/>
<path d="M0 0 C1.65 0 3.3 0 5 0 C5 0.33 5 0.66 5 1 C3.35 1 1.7 1 0 1 C0 0.67 0 0.34 0 0 Z " fill="#4C7FFF" transform="translate(284,12)"/>
<path d="M0 0 C1.65 0 3.3 0 5 0 C5 0.33 5 0.66 5 1 C3.35 1 1.7 1 0 1 C0 0.67 0 0.34 0 0 Z " fill="#5D90FF" transform="translate(274,10)"/>
<path d="M0 0 C1.65 0 3.3 0 5 0 C5 0.33 5 0.66 5 1 C3.35 1 1.7 1 0 1 C0 0.67 0 0.34 0 0 Z " fill="#5DA1FF" transform="translate(269,9)"/>
<path d="M0 0 C1.65 0 3.3 0 5 0 C5 0.33 5 0.66 5 1 C3.35 1 1.7 1 0 1 C0 0.67 0 0.34 0 0 Z " fill="#5588FF" transform="translate(48,7)"/>
<path d="M0 0 C4 1 4 1 4 1 Z " fill="#6A94FF" transform="translate(611,28)"/>
<path d="M0 0 C4 1 4 1 4 1 Z " fill="#5F8AFF" transform="translate(318,20)"/>
<path d="M0 0 C4 1 4 1 4 1 Z " fill="#5F8AFF" transform="translate(302,16)"/>
</svg>
